<svg xmlns="http://www.w3.org/2000/svg" height="92.075" width="369.229" xml:space="preserve"><defs><clipPath id="a" clipPathUnits="userSpaceOnUse"><path d="M0 511.667h909.63V0H0Z"/></clipPath></defs><g clip-path="url(#a)" transform="matrix(1.33333 0 0 -1.33333 -421.805 387.056)"><path d="M341.955 259.863h9.806v-38.627h-9.806zm-15.142 7.407h9.806v-31.648h-9.806zm30.284 7.406h9.806v-39.054h-9.806zm161.889 9.452 9.72 1.584v-11.036h14.142v3.399c0 3.934 1.06 6.955 3.156 9.062 2.107 2.096 5.25 3.155 9.428 3.155 1.864 0 3.85-.146 5.969-.414l-.719-6.822h-3.009c-3.409 0-5.104-1.643-5.104-4.932v-3.448h13.384l9.782-24.095 7.626 24.095h9.915l-18.187-53.44h-9.903l6.139 17.127-12.499 28.907h-6.257v-31.647h-9.721v31.647h-14.142v-20.173c0-1.633.356-2.787 1.084-3.483.722-.692 1.901-1.036 3.533-1.036 1.084 0 2.181.037 3.289.122l.756-6.919c-2.534-.464-4.764-.682-6.689-.682-4.068 0-7.031.898-8.891 2.692-1.867 1.799-2.802 4.567-2.802 8.32v21.159h-6.384v7.406h6.384zm-18.358-16.505c-.597 0-1.073-.012-1.426-.012a35.786 35.786 0 0 1-1.449-.085 10.097 10.097 0 0 1-1.498-.183c-.39-.086-.817-.208-1.292-.366-.475-.158-.853-.353-1.132-.585a3.16 3.16 0 0 1-.707-.889 2.74 2.74 0 0 1-.281-1.243c0-.463.074-.9.22-1.291a2.7 2.7 0 0 1 .682-1.035c.304-.293.621-.548.926-.768.316-.218.731-.425 1.242-.621.511-.194.95-.353 1.328-.487.378-.122.865-.267 1.462-.45a18.06 18.06 0 0 0 1.377-.439c2.838-.962 4.64-1.608 5.395-1.949 2.363-1.036 4.045-2.351 5.043-3.947 1.012-1.62 1.511-3.739 1.511-6.358 0-1.803-.255-3.387-.791-4.763-.525-1.389-1.231-2.522-2.12-3.4-.889-.888-2.01-1.607-3.338-2.168a17.95 17.95 0 0 0-4.202-1.157c-1.487-.219-3.131-.329-4.934-.329-2.265 0-4.665.147-7.187.451-2.522.292-4.775.706-6.748 1.231l.925 7.235c4.191-.779 7.736-1.182 10.635-1.182 2.277 0 3.91.123 4.897.378 2.009.524 3.02 1.645 3.02 3.374 0 .512-.06.975-.182 1.377-.122.413-.33.767-.609 1.084-.28.305-.549.561-.805.767a4.67 4.67 0 0 1-1.144.585c-.499.195-.901.341-1.219.438-.316.111-.779.245-1.388.414-.622.16-1.072.293-1.389.378-1.132.354-2.01.634-2.631.841-.609.195-1.425.512-2.437.926-.998.414-1.79.816-2.35 1.182-.561.377-1.194.877-1.912 1.51-.707.621-1.243 1.291-1.609 1.986-.365.706-.682 1.547-.937 2.533-.269.986-.403 2.071-.403 3.24 0 1.718.245 3.24.719 4.557.475 1.315 1.12 2.399 1.937 3.252.816.841 1.827 1.535 3.033 2.083 1.206.536 2.485.914 3.825 1.133 1.327.219 2.826.329 4.458.329 2.717 0 5.153-.122 7.31-.378 2.155-.256 4.494-.67 7.016-1.242l-.925-7.102c-3.838.755-7.139 1.145-9.916 1.145m-45.681-10.464 6.712.329c3.312.171 6.236.427 8.77.767.061.39.085.914.085 1.559 0 2.656-.572 4.642-1.705 5.957-1.145 1.315-3.046 1.974-5.725 1.974-1.401 0-2.607-.171-3.594-.537-.999-.352-1.79-.828-2.375-1.4-.585-.573-1.035-1.34-1.364-2.303a12.772 12.772 0 0 1-.646-2.875c-.109-.95-.158-2.119-.158-3.471m7.32-22.061c-2.582 0-4.859.329-6.809.999-1.961.658-3.569 1.571-4.811 2.717-1.243 1.144-2.242 2.582-3.009 4.312a22.046 22.046 0 0 0-1.62 5.482c-.305 1.925-.451 4.117-.451 6.554 0 3.605.292 6.65.889 9.123.609 2.473 1.595 4.532 2.972 6.188 1.389 1.669 3.18 2.862 5.397 3.618 2.217.743 4.97 1.109 8.259 1.109 2.022 0 3.825-.147 5.433-.45 1.608-.318 3.009-.744 4.202-1.292a10.804 10.804 0 0 0 3.119-2.132c.876-.877 1.608-1.827 2.167-2.851.561-1.022 1.012-2.217 1.365-3.593.342-1.365.573-2.753.707-4.178.134-1.413.195-3.009.195-4.799a38.76 38.76 0 0 0-.122-3.131c-2.145-.402-5.043-.78-8.734-1.17-3.679-.377-6.931-.633-9.757-.779l-6.42-.329c.085-1.511.341-2.765.767-3.764.439-.999 1.06-1.778 1.876-2.327a8.005 8.005 0 0 1 2.79-1.157c1.036-.232 2.302-.341 3.789-.341 3.921 0 8.612.341 14.081 1.023l.816-7.346c-6.029-.986-11.719-1.486-17.091-1.486m-16.106 39.578-12.023-33.621c-.731-2.047-1.693-3.545-2.899-4.508-1.206-.973-2.692-1.449-4.446-1.449-1.754 0-3.228.476-4.422 1.449-1.206.963-2.168 2.461-2.899 4.508l-11.974 33.621h10.269l9.245-29.248 9.258 29.248zm-63.317-13.546v-25.507h-9.697v35.841c4.544 2.411 10.708 3.736 17.834 3.736 1.973 0 3.728-.122 5.274-.378 1.56-.256 2.875-.609 3.959-1.048 1.072-.439 2.01-1.011 2.791-1.73.779-.718 1.4-1.449 1.851-2.216.45-.755.804-1.681 1.06-2.766.255-1.071.426-2.107.511-3.094.073-.986.122-2.143.122-3.483v-24.862h-9.697v23.985c0 .986-.036 1.814-.109 2.497a10.365 10.365 0 0 1-.402 1.961c-.195.621-.476 1.133-.84 1.522-.354.39-.817.732-1.389 1.024-.573.293-1.267.499-2.084.621-.815.122-1.791.183-2.911.183-2.533 0-4.544-.354-6.03-1.047-.17-1.451-.243-3.193-.243-5.239m-47.686 13.188 8.236-3.558a4.324 4.324 0 0 0 5.597 1.171l8.701 9.008a5.197 5.197 0 0 0 4.309 8.1 5.197 5.197 0 0 0 0-10.392 5.167 5.167 0 0 0-2.751.788l-8.701-9.009a4.331 4.331 0 0 0-3.691-6.593 4.331 4.331 0 0 0-4.266 5.072l-8.236 3.557a3.452 3.452 0 0 0-2.64-1.221c-.741 0-1.428.233-1.991.63l-8.304-6.765a2.596 2.596 0 1 0-1.186 1.455l8.304 6.765a3.463 3.463 0 1 0 6.619.992" fill="#fff" fill-rule="evenodd"/></g></svg>