<svg xmlns="http://www.w3.org/2000/svg" height="92.075" width="149.042" xml:space="preserve"><defs><clipPath id="a" clipPathUnits="userSpaceOnUse"><path d="M0 511.667h909.63V0H0Z"/></clipPath></defs><g clip-path="url(#a)" transform="matrix(1.33333 0 0 -1.33333 -531.899 387.148)"><path d="m417.728 274.387 8.237-3.558a4.306 4.306 0 0 1-.802-1.855l-8.237 3.558c.436.511.724 1.151.802 1.855M431.56 272l8.7 9.009a5.225 5.225 0 0 1 1.56-1.504l-8.7-9.01a4.35 4.35 0 0 1-1.56 1.506M412.294 271.94l-8.304-6.765a2.608 2.608 0 0 1-1.185 1.456l8.303 6.764a3.465 3.465 0 0 1 1.186-1.455" fill="#77bf43" fill-rule="evenodd"/><path d="M424.526 259.932h9.806v-38.627h-9.806zM409.383 267.339h9.806v-31.647h-9.806z" fill="#77bf43"/><path d="M414.286 278.236a3.464 3.464 0 1 0 0-6.928 3.464 3.464 0 0 0 0 6.928M429.428 272.562a4.33 4.33 0 1 0 0-8.66 4.33 4.33 0 0 0 0 8.66M401.52 266.97a2.596 2.596 0 1 1 0-5.191 2.596 2.596 0 0 1 0 5.191" fill="#fff" fill-rule="evenodd"/><path d="M439.667 274.746h9.806v-39.054h-9.806z" fill="#fff"/><path d="M444.57 289.108a5.196 5.196 0 1 0-.001-10.392 5.196 5.196 0 0 0 .002 10.392" fill="#fff" fill-rule="evenodd"/><path d="M453.206 274.745h7.071v3.398c0 3.935 1.06 6.956 3.156 9.064 2.107 2.095 5.25 3.154 9.428 3.154 1.864 0 3.85-.146 5.97-.413l-.72-6.823h-3.009c-3.409 0-5.104-1.643-5.104-4.932v-3.448h13.384l9.782-24.095 7.626 24.095h9.915l-18.186-53.44h-9.904l6.14 17.127-12.5 28.907h-6.257v-31.647h-9.72v31.647h-7.072Z" fill="#fff"/></g></svg>