<svg width="278" height="70" xmlns="http://www.w3.org/2000/svg"><g fill="none" fill-rule="evenodd"><path d="M19.343 16.446l8.237 3.558a4.308 4.308 0 00-.803 1.855l-8.236-3.557a3.45 3.45 0 00.802-1.856M33.176 18.833l8.7-9.008a5.213 5.213 0 001.559 1.504l-8.701 9.009a4.347 4.347 0 00-1.558-1.505M13.909 18.894l-8.304 6.764a2.598 2.598 0 00-1.185-1.455l8.303-6.764c.256.587.669 1.09 1.186 1.455M26.14 69.528h9.806V30.901H26.14zM10.998 55.142h9.806V23.495h-9.806z" fill="#ffffff"/><path d="M15.901 12.598a3.463 3.463 0 110 6.926 3.463 3.463 0 010-6.926M31.043 18.271a4.33 4.33 0 010 8.659 4.33 4.33 0 010-8.659M3.135 23.863a2.596 2.596 0 100 5.192 2.596 2.596 0 000-5.192M41.282 55.142h9.806V16.088h-9.806zM46.186 1.726a5.196 5.196 0 11-.002 10.392 5.196 5.196 0 01.002-10.392M203.171 6.636l9.72-1.584v11.036h14.142V12.69c0-3.935 1.06-6.956 3.155-9.063 2.108-2.095 5.25-3.155 9.429-3.155 1.863 0 3.85.146 5.969.414l-.719 6.822h-3.009c-3.409 0-5.104 1.644-5.104 4.933v3.447h13.384l9.782 24.095 7.626-24.095h9.915l-18.187 53.44h-9.903l6.139-17.127-12.499-28.906h-6.257v31.647h-9.721V23.495h-14.142v20.172c0 1.632.356 2.787 1.084 3.483.722.692 1.901 1.036 3.533 1.036 1.084 0 2.18-.036 3.289-.122l.756 6.919c-2.534.464-4.764.683-6.689.683-4.068 0-7.031-.899-8.891-2.692-1.868-1.8-2.802-4.568-2.802-8.32V23.495h-6.384v-7.407h6.384V6.636M184.813 23.141c-.597 0-1.073.013-1.426.013-.353.012-.828.036-1.449.085-.61.036-1.109.097-1.499.182-.389.086-.816.207-1.291.366-.475.158-.853.354-1.132.585a3.173 3.173 0 00-.707.889c-.183.365-.281.78-.281 1.242 0 .463.074.901.22 1.292.146.401.377.743.682 1.035.304.293.621.548.925.768.317.219.732.426 1.243.621.511.195.95.353 1.328.487.378.122.865.268 1.462.45.596.171 1.059.318 1.377.439 2.838.963 4.64 1.608 5.395 1.949 2.363 1.036 4.045 2.351 5.043 3.947 1.012 1.62 1.511 3.74 1.511 6.359 0 1.802-.255 3.386-.791 4.762-.525 1.389-1.231 2.522-2.12 3.399-.889.889-2.01 1.608-3.338 2.169a17.854 17.854 0 01-4.202 1.157c-1.487.219-3.131.329-4.934.329-2.266 0-4.665-.146-7.187-.451-2.522-.293-4.775-.706-6.748-1.231l.925-7.235c4.191.779 7.736 1.182 10.635 1.182 2.277 0 3.91-.122 4.897-.378 2.009-.524 3.02-1.645 3.02-3.374 0-.512-.06-.975-.183-1.377a2.814 2.814 0 00-.608-1.084 7.664 7.664 0 00-.805-.767 4.635 4.635 0 00-1.144-.585 18.649 18.649 0 00-1.219-.439 28.056 28.056 0 00-1.388-.414c-.622-.158-1.072-.292-1.389-.377-1.132-.354-2.01-.634-2.631-.841-.609-.195-1.425-.512-2.437-.926-.998-.414-1.79-.816-2.35-1.181a19.001 19.001 0 01-1.912-1.511c-.707-.621-1.243-1.291-1.609-1.986-.365-.706-.682-1.546-.937-2.533-.269-.987-.403-2.071-.403-3.241 0-1.717.245-3.24.719-4.555.475-1.316 1.12-2.4 1.937-3.253.816-.84 1.827-1.534 3.033-2.083a15.53 15.53 0 013.825-1.132c1.327-.22 2.826-.33 4.458-.33 2.717 0 5.153.123 7.31.378 2.155.256 4.494.67 7.016 1.243l-.925 7.102c-3.838-.756-7.139-1.146-9.916-1.146M139.132 33.605l6.712-.329c3.312-.17 6.236-.426 8.77-.767.061-.39.085-.914.085-1.559 0-2.656-.572-4.641-1.705-5.957-1.145-1.316-3.046-1.973-5.725-1.973-1.401 0-2.607.17-3.594.535-.999.354-1.79.829-2.375 1.401-.585.573-1.035 1.34-1.364 2.303-.33.962-.549 1.912-.646 2.874-.109.95-.158 2.12-.158 3.472zm7.32 22.061c-2.582 0-4.859-.329-6.809-.999-1.961-.658-3.569-1.572-4.811-2.716-1.243-1.145-2.242-2.583-3.009-4.313a22.071 22.071 0 01-1.62-5.482c-.305-1.925-.452-4.117-.452-6.553 0-3.606.293-6.651.89-9.124.609-2.473 1.595-4.531 2.972-6.188 1.389-1.669 3.179-2.863 5.397-3.618 2.217-.743 4.969-1.109 8.259-1.109 2.022 0 3.825.147 5.433.451 1.608.317 3.009.743 4.202 1.292a10.783 10.783 0 013.118 2.131c.877.877 1.609 1.827 2.168 2.851.561 1.023 1.012 2.216 1.365 3.593.341 1.365.573 2.753.707 4.179.134 1.413.195 3.008.195 4.799 0 1.035-.037 2.083-.122 3.131-2.145.402-5.043.779-8.734 1.169-3.679.378-6.931.633-9.757.779l-6.42.33c.085 1.51.341 2.765.767 3.763.439.999 1.06 1.779 1.876 2.327a8.026 8.026 0 002.79 1.158c1.036.231 2.302.34 3.789.34 3.921 0 8.612-.34 14.081-1.023l.816 7.346c-6.029.987-11.719 1.486-17.091 1.486zM130.346 16.088l-12.023 33.621c-.731 2.047-1.693 3.545-2.899 4.507-1.206.974-2.692 1.45-4.446 1.45-1.754 0-3.228-.476-4.422-1.45-1.206-.962-2.168-2.46-2.899-4.507L91.683 16.088h10.269l9.245 29.248 9.258-29.248h9.891M67.029 29.634v25.508h-9.697V19.3c4.543-2.412 10.708-3.736 17.834-3.736 1.973 0 3.728.123 5.274.378 1.56.256 2.875.609 3.959 1.048 1.072.438 2.01 1.01 2.79 1.73.78.718 1.401 1.449 1.852 2.217.45.754.804 1.68 1.06 2.765.255 1.071.426 2.107.511 3.094.073.986.122 2.143.122 3.484v24.862h-9.697V31.156c0-.986-.036-1.814-.109-2.497a10.46 10.46 0 00-.402-1.961c-.195-.621-.476-1.133-.84-1.522-.354-.39-.817-.731-1.389-1.024-.573-.292-1.267-.499-2.084-.621-.816-.122-1.791-.182-2.911-.182-2.533 0-4.544.353-6.03 1.047-.17 1.45-.243 3.192-.243 5.238" fill="#e9edf0"/></g></svg>