<svg xmlns="http://www.w3.org/2000/svg" viewBox="0 0 11862.65 12967.52" shape-rendering="geometricPrecision" text-rendering="geometricPrecision" image-rendering="optimizeQuality" fill-rule="evenodd" clip-rule="evenodd"><defs><style>.fil1{fill:#7eba32}.fil3{fill:#1b4765}.fil2,.fil4{fill:#7eba32;fill-rule:nonzero}.fil4{fill:#1b4765}</style></defs><path class="fil1" d="M4636.09 3494.87l984.96 425.43c-48.12 64.07-81.7 139.66-95.91 221.88l-984.93-425.41c52.02-61.23 86.55-137.76 95.88-221.9zM6290.33 3780.32l1040.36-1077.27c48.77 72.23 112.35 133.63 186.34 179.91l-1040.4 1077.3c-45.83-74.58-110.03-136.67-186.3-179.94zM3986.36 3787.55l-993 808.88c-24.04-74.14-75.2-136.05-141.78-174.03l992.96-808.85c30.51 70.26 79.92 130.39 141.82 174z"/><path class="fil2" d="M5448.95 6967.81V5223.43h1172.62v1744.38zM3638.21 6532.25V4337.72h1172.63v2194.53z"/><path class="fil3" d="M4224.54 3034.67c228.7 0 414.11 185.41 414.11 414.1 0 228.7-185.42 414.11-414.11 414.11-228.7 0-414.1-185.42-414.1-414.11 0-228.7 185.41-414.1 414.1-414.1zM2697.97 4381.79c-171.52 0-310.51 138.98-310.51 310.5s138.99 310.5 310.51 310.5c171.51 0 310.5-138.98 310.5-310.5s-138.99-310.5-310.5-310.5z"/><path class="fil4" d="M7259.68 6532.25v-3080.2h1172.63v3080.2z"/><path class="fil3" d="M7845.99 1734.56c343.08 0 621.32 278.24 621.32 621.32 0 343.07-278.24 621.31-621.32 621.31-343.07 0-621.31-278.24-621.31-621.31 0-343.08 278.24-621.32 621.31-621.32zM6035.25 3713.16c285.87 0 517.72 231.85 517.72 517.71 0 285.87-231.85 517.72-517.72 517.72-285.86 0-517.71-231.85-517.71-517.72 0-285.86 231.85-517.71 517.71-517.71z"/><path class="fil4" d="M1787.72 10077.02c-125.98 0-237.13-9.69-332.9-29.64-95.77-19.95-179.56-51.3-251.96-95.2-71.82-43.32-132.25-96.34-180.12-159.62-48.46-63.27-87.79-141.36-118-234.85-29.64-92.92-51.3-196.09-64.41-308.95-13.12-112.87-19.38-243.4-19.38-391.61 0-148.78 6.26-279.32 19.38-392.19 13.11-112.87 34.77-216.04 64.41-308.96 30.21-92.92 69.55-171 118-234.28 47.87-63.27 108.3-116.86 180.12-160.18 72.4-43.32 156.19-75.24 251.96-94.62 95.77-19.95 206.92-30.21 332.9-30.21 125.4 0 236.56 10.26 332.32 30.21 95.77 19.38 179.57 51.3 251.39 94.62 71.83 43.32 131.68 96.91 180.13 160.18 47.88 63.27 87.22 141.36 117.43 234.28 30.21 92.92 51.88 196.09 64.41 308.96 13.12 112.87 19.95 243.4 19.95 392.19 0 315.22-32.49 562.04-97.48 741.04-64.98 178.42-176.7 305.53-334.6 381.35 20.52 29.64 42.75 56.43 67.83 81.52 24.52 25.08 47.31 46.17 67.84 63.84 21.09 17.11 48.46 37.06 82.65 58.15 34.2 21.66 62.71 38.76 85.51 51.88 23.37 12.53 57.57 30.78 103.18 55.86l-368.24 263.36c-116.86-56.43-189.25-92.92-216.61-108.88-143.65-80.37-248.54-176.7-314.66-287.86-15.96-26.22-29.64-53.01-41.04-80.37zm398.45-1074.52c.57-34.77.57-83.23.57-145.35 0-62.14 0-111.16-.57-145.94-.57-34.77-1.71-78.09-4.56-129.96-2.84-51.3-6.84-91.77-11.4-120.85-4.56-29.07-11.4-63.27-20.52-102.6-9.12-39.33-19.94-69.55-33.62-90.63-13.69-21.66-30.79-44.46-50.74-68.97-19.38-24.52-42.75-42.75-68.97-54.72-26.22-11.97-57-22.23-91.78-30.21-34.77-8.55-74.1-12.54-116.85-12.54-43.33 0-82.09 3.99-117.43 12.54-34.77 7.98-65.56 18.24-91.78 30.21-26.21 11.97-49.59 30.2-69.54 54.15-20.52 24.52-37.06 47.31-50.17 69.55-13.68 21.66-25.08 51.88-34.2 90.63-9.12 38.77-15.96 72.96-21.09 102.04-4.56 29.64-8.55 70.11-10.84 121.41-2.84 51.88-4.55 95.2-5.13 130.54V9002.51c.57 35.91 2.28 79.24 5.13 130.54 2.28 51.3 6.27 91.78 10.84 120.85 5.13 29.64 11.97 63.85 21.09 102.6 9.13 38.2 20.52 68.4 34.2 90.06 13.11 21.67 29.64 44.47 50.17 68.41 19.94 23.94 43.32 41.61 69.54 53.58 26.22 11.97 57.01 22.23 91.78 30.21 35.34 8.54 74.1 12.53 117.43 12.53 42.75 0 82.08-3.99 116.85-12.53 34.78-7.98 65.56-18.24 91.78-29.64 26.22-11.41 49.59-29.64 68.97-54.16 19.95-25.08 37.05-47.88 50.74-68.97 13.68-21.1 24.51-51.3 33.62-90.07 9.13-39.33 15.96-72.96 20.52-102.03 4.56-29.07 8.55-69.55 11.4-121.42 2.85-51.3 3.99-94.62 4.56-129.96zm2622.89-1340.72v1571.58c0 131.68-14.25 246.26-42.19 344.3-28.5 98.61-67.83 179-117.99 242.27-50.73 63.27-114.58 114.58-191.53 152.76-77.53 38.77-160.75 66.13-249.68 81.52-89.5 15.39-192.1 22.81-307.81 22.81-115.15 0-217.75-7.42-307.25-22.81-88.92-15.39-172.15-42.75-249.67-81.52-77.53-38.19-141.37-89.49-191.54-152.76-50.16-63.27-89.49-143.65-117.99-242.27-28.5-98.04-42.75-212.62-42.75-344.3V7661.78h552.35v1598.37c0 126.55 26.22 215.47 79.24 266.77 52.45 51.3 145.36 76.95 277.61 76.95s224.59-25.65 277.6-77.53c53.02-51.3 79.81-140.23 79.81-266.2V7661.77h551.79zm644.3 2390.72h-576.3l695.44-2031.03c46.74-135.09 104.31-233.14 172.72-293.56 68.97-60.99 154.47-91.21 256.51-91.21 196.66 0 338.6 128.26 424.67 384.77l685.17 2031.03h-592.83l-161.89-546.09h-746.17l-157.33 546.09zm282.16-978.75h492.51l-249.1-843.64-243.4 843.64zm2291.13-1073.37l648.7 1288.84V7661.78h505.04v1986.56c0 285.59-111.72 428.67-334.61 428.67-101.46 0-185.26-26.22-251.95-78.67-66.69-51.87-135.1-147.64-204.65-286.73l-647.55-1292.83v1633.72h-503.91V8063.66c0-284.44 110.59-426.95 332.33-426.95 95.2 0 178.41 27.93 250.24 83.23 71.25 55.29 140.23 148.78 206.36 280.45zm3015.07-338.6v457.17h-566.62v1933.55h-560.91V8118.95h-561.48v-457.17h1689.01z"/></svg>