<svg width="113" height="71" xmlns="http://www.w3.org/2000/svg"><g fill="none" fill-rule="evenodd"><path d="M18.913 16.446l8.237 3.558a4.306 4.306 0 00-.802 1.855l-8.237-3.557a3.45 3.45 0 00.802-1.856M32.747 18.833l8.7-9.008a5.21 5.21 0 001.558 1.504l-8.7 9.009a4.363 4.363 0 00-1.558-1.505M13.48 18.894l-8.304 6.764a2.604 2.604 0 00-1.186-1.455l8.304-6.764c.255.587.668 1.09 1.186 1.455M25.711 69.528h9.806V30.901h-9.806zM10.568 55.142h9.807V23.495h-9.807z" fill="#71B844"/><path d="M15.472 12.598a3.463 3.463 0 110 6.926 3.463 3.463 0 010-6.926M30.613 18.271a4.33 4.33 0 010 8.659 4.33 4.33 0 010-8.659M2.706 23.863a2.596 2.596 0 10-.002 5.192 2.596 2.596 0 00.002-5.192M40.853 55.142h9.806V16.088h-9.806zM45.756 1.726a5.197 5.197 0 11-.001 10.393 5.197 5.197 0 01.001-10.393M54.392 16.088h7.071V12.69c0-3.935 1.06-6.956 3.155-9.064C66.726 1.532 69.869.472 74.047.472c1.864 0 3.849.146 5.968.414l-.718 6.822h-3.009c-3.409 0-5.104 1.644-5.104 4.933v3.447h13.383l9.783 24.096 7.626-24.096h9.915l-18.186 53.44H83.8l6.14-17.127-12.499-28.906h-6.257v31.647h-9.721V23.495h-7.071v-7.407" fill="#233E55"/></g></svg>