<svg xmlns="http://www.w3.org/2000/svg" height="92.075" width="369.229" xml:space="preserve"><defs><clipPath id="a" clipPathUnits="userSpaceOnUse"><path d="M0 511.667h909.63V0H0Z"/></clipPath></defs><g clip-path="url(#a)" transform="matrix(1.33333 0 0 -1.33333 -421.805 387.056)"><path d="M341.955 259.862h9.806v-38.626h-9.806zm-15.142 7.407h9.806v-31.647h-9.806zm30.284 7.407h9.806v-39.054h-9.806zm161.889 9.452 9.72 1.584v-11.036h14.142v3.398c0 3.935 1.06 6.955 3.156 9.063 2.107 2.095 5.25 3.155 9.428 3.155 1.864 0 3.85-.146 5.969-.414l-.719-6.822h-3.009c-3.409 0-5.104-1.644-5.104-4.933v-3.447h13.384l9.782-24.095 7.626 24.095h9.915l-18.187-53.44h-9.903l6.139 17.127-12.499 28.906h-6.257v-31.647h-9.721v31.647h-14.142v-20.172c0-1.632.356-2.787 1.084-3.484.722-.691 1.901-1.035 3.533-1.035 1.084 0 2.181.036 3.289.121l.756-6.919c-2.534-.463-4.764-.682-6.689-.682-4.068 0-7.031.899-8.891 2.692-1.867 1.8-2.802 4.568-2.802 8.32v21.159h-6.384v7.407h6.384zm-18.358-16.505c-.597 0-1.073-.013-1.426-.013a32.422 32.422 0 0 1-1.449-.085 10.097 10.097 0 0 1-1.498-.183c-.39-.085-.817-.207-1.292-.365-.475-.158-.853-.354-1.132-.585a3.173 3.173 0 0 1-.707-.889 2.74 2.74 0 0 1-.281-1.243c0-.462.074-.9.22-1.291.146-.401.377-.743.682-1.035.304-.293.621-.548.926-.768.316-.219.731-.426 1.242-.621s.95-.353 1.328-.487c.378-.122.865-.268 1.462-.45a18.526 18.526 0 0 0 1.377-.439c2.838-.963 4.64-1.608 5.395-1.95 2.363-1.035 4.045-2.35 5.043-3.946 1.012-1.62 1.511-3.74 1.511-6.359 0-1.802-.255-3.386-.791-4.762-.525-1.389-1.231-2.522-2.12-3.399-.889-.89-2.01-1.608-3.338-2.169a17.854 17.854 0 0 0-4.202-1.157c-1.487-.219-3.131-.329-4.934-.329a59.96 59.96 0 0 0-7.187.451c-2.522.292-4.775.706-6.748 1.23l.925 7.236c4.191-.779 7.736-1.182 10.635-1.182 2.277 0 3.91.122 4.897.378 2.009.524 3.02 1.645 3.02 3.374 0 .512-.06.975-.182 1.377a2.83 2.83 0 0 1-.609 1.084c-.28.304-.549.56-.805.767a4.635 4.635 0 0 1-1.144.585 18.44 18.44 0 0 1-1.219.439c-.316.109-.779.243-1.388.414-.622.158-1.072.292-1.389.377-1.132.354-2.01.634-2.631.84-.609.196-1.425.513-2.437.927-.998.414-1.79.816-2.35 1.181-.561.378-1.194.877-1.912 1.511-.707.621-1.243 1.291-1.609 1.985-.365.707-.682 1.547-.937 2.534-.269.986-.403 2.071-.403 3.24 0 1.718.245 3.241.719 4.556.475 1.316 1.12 2.4 1.937 3.252.816.841 1.827 1.535 3.033 2.083 1.206.537 2.485.915 3.825 1.133 1.327.22 2.826.329 4.458.329 2.717 0 5.153-.122 7.31-.377 2.155-.256 4.494-.67 7.016-1.243l-.925-7.102c-3.838.756-7.139 1.146-9.916 1.146m-45.681-10.465 6.712.329c3.312.171 6.236.427 8.77.768.061.39.085.914.085 1.559 0 2.656-.572 4.641-1.705 5.957-1.145 1.316-3.046 1.973-5.725 1.973-1.401 0-2.607-.17-3.594-.535-.999-.354-1.79-.829-2.375-1.401-.585-.573-1.035-1.341-1.364-2.303a12.776 12.776 0 0 1-.646-2.874c-.109-.951-.158-2.12-.158-3.473m7.32-22.06c-2.582 0-4.859.329-6.809.999-1.961.658-3.569 1.572-4.811 2.716-1.243 1.145-2.242 2.583-3.009 4.313a22.059 22.059 0 0 0-1.62 5.482c-.305 1.924-.451 4.117-.451 6.553 0 3.606.292 6.651.889 9.124.609 2.473 1.595 4.531 2.972 6.188 1.389 1.669 3.18 2.863 5.397 3.618 2.217.743 4.97 1.108 8.259 1.108 2.022 0 3.825-.146 5.433-.45 1.608-.317 3.009-.743 4.202-1.292a10.82 10.82 0 0 0 3.119-2.131c.876-.877 1.608-1.827 2.167-2.851.561-1.023 1.012-2.217 1.365-3.593.342-1.365.573-2.753.707-4.179.134-1.413.195-3.008.195-4.799 0-1.035-.037-2.083-.122-3.131-2.145-.402-5.043-.779-8.734-1.169-3.679-.378-6.931-.634-9.757-.78l-6.42-.329c.085-1.51.341-2.765.767-3.763.439-.999 1.06-1.779 1.876-2.327a8.026 8.026 0 0 1 2.79-1.158c1.036-.231 2.302-.341 3.789-.341 3.921 0 8.612.341 14.081 1.024l.816-7.346c-6.029-.987-11.719-1.486-17.091-1.486m-16.106 39.578-12.023-33.621c-.731-2.047-1.693-3.545-2.899-4.507-1.206-.975-2.692-1.45-4.446-1.45-1.754 0-3.228.475-4.422 1.45-1.206.962-2.168 2.46-2.899 4.507l-11.974 33.621h10.269l9.245-29.248 9.258 29.248zm-63.317-13.546v-25.508h-9.697v35.842c4.544 2.412 10.708 3.735 17.834 3.735 1.973 0 3.728-.122 5.274-.377 1.56-.256 2.875-.609 3.959-1.048 1.072-.438 2.01-1.011 2.791-1.73.779-.718 1.4-1.449 1.851-2.217.45-.755.804-1.68 1.06-2.765.255-1.072.426-2.107.511-3.094.073-.986.122-2.144.122-3.484v-24.862h-9.697v23.986c0 .986-.036 1.814-.109 2.497a10.382 10.382 0 0 1-.402 1.961c-.195.621-.476 1.132-.84 1.522-.354.39-.817.731-1.389 1.024-.573.292-1.267.499-2.084.621-.815.122-1.791.182-2.911.182-2.533 0-4.544-.353-6.03-1.047-.17-1.45-.243-3.192-.243-5.238m-47.686 13.188 8.236-3.558a4.323 4.323 0 0 0 3.464 1.732c.776 0 1.503-.204 2.133-.562l8.701 9.009a5.196 5.196 0 1 0 1.558-1.505l-8.701-9.008a4.33 4.33 0 1 0-7.957-1.522l-8.236 3.558a3.457 3.457 0 0 0-4.631-.592l-8.304-6.764a2.596 2.596 0 1 0-1.186 1.455l8.304 6.764a3.464 3.464 0 1 0 6.619.993" fill="#231f20" fill-rule="evenodd"/></g></svg>